<svg width="456" height="367" viewBox="0 0 456 367" fill="none" xmlns="http://www.w3.org/2000/svg">
<path d="M71.4288 237.948C73.4066 238.449 75.6863 239.809 77.3272 240.082C92.3982 242.591 106.511 242.441 121.526 240.153C124.556 242.282 127.841 246.116 130.564 248.828L150.892 269.292L193.401 311.84C196.865 315.358 201.689 319.886 204.895 323.296C213.403 327.982 221.212 330.298 228.505 330.44C229.139 330.453 229.77 330.448 230.397 330.427C242.614 330.029 253.399 323.43 263.658 311.584C264.944 310.1 266.853 308.332 268.255 306.907C277.738 297.39 287.285 287.937 296.896 278.549C300.529 274.974 305.323 269.476 309.153 266.239L309.303 266.115L312.272 263.115C315.246 260.122 318.24 257.146 321.25 254.189C323.429 252.083 326.77 249.102 328.745 246.899C332.927 246.92 337.065 247.372 341.23 247.524C352.628 247.939 363.567 245.598 374.412 242.35C377.542 241.412 380.744 240.861 383.874 239.787C372.189 250.89 361.143 262.934 349.614 274.217C347.516 276.27 345.422 278.287 343.357 280.378C339.186 284.675 334.95 288.911 330.655 293.083C329.72 293.993 327.431 296.45 326.595 297.048C326.522 297.147 326.436 297.257 326.338 297.376C326.141 297.614 325.895 297.89 325.612 298.192C325.471 298.343 325.321 298.501 325.164 298.664C323.906 299.969 322.176 301.615 320.807 302.921C320.122 303.574 319.529 304.142 319.129 304.54L302.083 321.617L290.562 333.332C288.77 335.159 285.913 338.278 283.949 339.738C280.597 343.744 276.812 347.367 272.663 350.539C257.036 362.557 238.252 368.051 218.622 365.373C215.376 365.209 212.199 363.818 209.169 363.131C186.453 357.982 173.743 339.751 157.785 324.801C153.862 321.125 149.998 316.634 146.032 312.73L99.6163 266.613L82.3536 249.338C78.8397 245.82 74.3988 241.817 71.4288 237.948Z" fill="#818CFF"/>
<path d="M329.277 0.474347C338.925 -0.77486 350.943 0.59702 361.781 2.79759C363.195 3.08461 364.589 3.38578 365.954 3.697C368.685 4.31945 371.305 4.98248 373.75 5.65403C375.286 6.0758 377.465 6.84532 379.951 7.82493C380.573 8.06992 381.214 8.32828 381.868 8.59739C389.067 11.5569 397.939 15.8444 401.436 18.5964L401.663 18.7781C403.418 19.4674 407.86 22.9983 409.639 24.3201C425.54 36.0762 438.079 51.7987 446.003 69.9177C467.672 119.855 453.131 180.172 408.806 212.637C405.843 214.808 401.655 217.792 398.405 219.487C394.149 221.876 380.325 229.057 376.105 229.334C374.509 230.254 362.234 233.047 359.691 233.504C336.611 237.659 310.114 234.1 289.017 223.764C286.61 222.585 283.792 221.165 281.626 219.677C278.924 220.384 276.246 221.177 273.594 222.055C268.815 223.674 234.902 236.335 232.885 235.583L232.716 235.208C234.151 231.294 234.317 227.851 235.272 223.881L242.073 195.745C242.992 191.931 243.542 188.071 244.72 184.325C243.353 182.268 240.047 179.157 239.614 177.383C239.928 176.463 240.526 175.431 241.482 174.29C247.7 166.868 254.029 159.437 260.206 151.977C260.421 151.954 260.637 151.932 260.852 151.908C260.982 151.998 270.187 165.691 271.226 167.129C270.748 168.752 270.302 170.491 269.945 172.144C267.669 182.678 264.288 193.12 262.133 203.663C264.897 202.115 272.519 199.979 276.495 198.665C282.224 196.772 294.265 191.906 299.957 191.522C301.311 191.432 310.589 195.718 312.638 196.359C327.942 201.147 343.428 202.491 359.074 198.397C381.238 192.788 400.687 177.997 411.628 157.873C412.96 155.413 413.847 152.517 415.356 150.192L415.802 149.218C424.999 128.671 423.07 102.335 413.858 82.2615C411.279 76.6397 407.172 71.933 404.232 66.7722L404.115 66.5642C402.158 64.6973 400.281 61.769 398.082 59.612C385.045 46.8178 367.277 36.7079 348.713 36.3855C348.05 36.374 347.386 36.3746 346.721 36.3884C344.726 36.4298 342.724 36.5863 340.72 36.8669C336.793 37.4166 328.331 42.2734 326.144 45.6374C325.915 46.2414 325.192 47.6551 324.845 48.1931C320.236 55.343 319.582 64.5008 314.046 71.1257C309.466 76.6077 304.967 81.6911 300.431 86.9841L266.844 126.227L239.146 158.855C235.318 163.351 231.64 168.243 227.557 172.488C225.759 174.356 222.883 175.316 220.436 175.945C214.199 174.323 208.698 168.892 212.275 161.96C214.31 158.016 219.096 153.078 222.046 149.552L243.808 123.672C247.307 119.487 250.944 115.405 254.222 111.042C256.057 108.599 256.743 106.266 254.06 104.026C253.095 103.773 252.498 103.853 251.631 104.574C247.511 107.987 244.428 112.556 240.999 116.602C233.694 125.223 226.349 133.842 219.034 142.452C215.053 147.138 211.462 146.441 206.311 144.599C203.408 141.459 202.802 140.477 201.853 136.341C202.603 134.412 203.572 131.765 204.822 130.175C208.175 125.908 212.053 121.711 215.593 117.567C220.774 111.503 225.607 105.292 230.738 99.1902C232.942 96.5693 237.475 91.1049 238.91 88.3279C238.031 87.2439 236.366 85.6161 235.354 84.5661C231.342 86.9596 219.689 102.287 215.663 106.855C213.88 108.879 212.04 111.253 209.693 112.639C208.72 113.214 207.614 113.516 206.497 113.654C204.211 113.937 202.03 113.312 200.218 111.901C198.117 110.266 196.367 107.659 196.092 104.972C195.812 102.223 197.207 99.7506 198.679 97.5456C200.462 94.8748 202.752 92.4399 204.828 89.9851C209.509 84.4512 214.354 79.0799 219.109 73.616C228.219 63.15 236.9 52.2866 245.883 41.7136C266.843 17.0435 297.265 3.0435 329.277 0.474347Z" fill="#917CF5"/>
<path d="M94.3946 2.99876C122.223 -3.08991 151.311 0.936824 176.438 14.3562C179.587 16.0458 182.944 18.3615 185.986 20.3044C197.11 27.4067 206.701 36.4838 215.014 46.696C216.643 48.699 219.046 50.9468 219.969 53.3747C220.593 55.0167 217.626 57.1888 216.662 58.3279L203.504 74.0574C202.098 75.7054 197.905 80.6558 196.322 81.7888C195.714 81.6729 195.215 81.6214 194.905 80.9216C186.066 61.4027 166.774 45.9824 146.762 38.9499C127.934 32.3336 105.534 34.0864 87.1729 41.3923C64.6791 50.3423 48.1258 67.8345 39.8517 90.5583C32.5515 110.608 33.5115 132.234 42.1817 151.725C44.5748 157.189 48.9522 164.613 54.6817 167.017C57.9457 168.387 62.5891 167.163 66.2921 167.303C67.1742 166.029 69.4733 162.126 69.9522 161.515C75.4379 151.77 73.584 143.914 73.503 133.418C73.374 116.67 72.5296 99.9706 72.5206 83.2136C72.5186 80.8266 71.9892 76.4724 75.2501 75.4294C80.791 74.2877 86.5429 80.174 87.4669 85.3249C88.4679 91.0668 89.6698 97.0227 89.9288 102.84C89.3648 110.169 87.7262 119.957 86.4522 127.256C88.3902 125.745 90.7791 122.754 92.502 120.848C96.9979 115.856 101.459 110.83 105.883 105.773C109.671 101.526 113.904 97.5439 117.739 93.2761C128.774 81.0121 139.867 68.7508 151.269 56.8308C151.84 56.2858 153.248 54.9713 154.087 55.3523C160.416 58.2202 160.982 69.1921 157.387 74.4783C148.946 86.8892 139.081 99.1205 129.641 110.804C126.605 114.562 120.817 117.318 117.645 120.977C116.756 121.89 115.454 124.057 115.9 125.392C117.203 125.71 118.073 125.018 119.2 124.385C130.188 118.219 140.928 107.254 154.456 110.692C166.862 113.845 175.056 117.261 182.919 127.607C185.654 131.227 188.792 133.393 189.837 138.139C187.959 144.058 181.926 144.483 176.806 143.052C172.241 141.777 169.941 138.403 166.421 135.615C153.883 126.45 136.447 131.979 131.828 146.722C130.27 151.723 130.765 157.14 133.204 161.777C135.17 165.511 140.237 170.107 144.131 171.269C147.873 172.385 154.698 172.183 158.162 170.126C161.278 168.325 164.48 166.018 166.794 163.19C171.718 157.173 173.908 150.908 182.591 149.745C186.347 149.242 196.696 149.704 194.455 156.423C193.306 159.867 189.477 163.934 187.802 167.319C179.046 182.252 170.172 197.226 156.761 208.536C155.762 209.378 151.513 213.081 150.607 213.481C148.855 214.748 147.092 216.002 145.321 217.241C130.411 227.573 110.585 232.261 92.1749 230.618C91.5289 230.56 90.8846 230.495 90.2423 230.422C88.6368 230.238 87.0439 230.006 85.4679 229.724C84.0379 229.469 82.6194 229.172 81.213 228.836C80.5098 228.667 79.8095 228.49 79.1124 228.302C76.6722 227.645 74.2697 226.87 71.9063 225.988C71.231 225.736 70.5586 225.476 69.8897 225.207C69.5555 225.072 69.2223 224.935 68.8897 224.797C68.2241 224.519 67.5615 224.233 66.9024 223.939C63.6086 222.469 60.3991 220.795 57.2794 218.952C56.3433 218.399 55.4149 217.831 54.4952 217.248C49.2845 213.945 44.34 210.176 39.6934 206.096C39.1469 205.617 38.6047 205.132 38.0665 204.644C37.5281 204.156 36.9939 203.664 36.464 203.168C35.9339 202.672 35.4084 202.171 34.8868 201.668C34.6262 201.416 34.366 201.164 34.1075 200.911C33.5901 200.404 33.0772 199.893 32.5684 199.38C31.8058 198.61 31.0526 197.833 30.3097 197.05C29.8142 196.527 29.3235 196.002 28.837 195.474C28.3507 194.947 27.869 194.417 27.3917 193.885C26.3839 192.761 25.426 191.564 24.502 190.328C24.1324 189.833 23.7682 189.333 23.4083 188.828C23.2283 188.575 23.0491 188.322 22.8712 188.068C22.1597 187.052 21.4637 186.025 20.7745 185.004C20.4297 184.493 20.0866 183.984 19.7442 183.478L18.7188 181.976C17.6137 180.564 16.2989 178.019 15.3429 176.388C8.81196 165.25 5.02175 154.979 2.40927 142.371C-0.279422 130.097 -0.664509 120.783 0.98837 108.368C1.54637 104.176 1.50847 100.259 2.40927 95.8064C5.39449 81.0525 11.6245 65.6537 19.8741 53.0808C37.4549 26.2865 63.3757 9.70907 94.3946 2.99876Z" fill="#818CFF"/>
<path d="M348.779 66.072C357.32 63.888 368.667 90.1451 370.441 96.5515C376.194 117.329 374.015 140.439 362.17 158.792C359.418 163.056 355.036 170.246 349.93 171.298L349.616 171.233C346.767 170.664 343.792 168.564 342.919 165.672C341.806 161.988 346.961 157.958 348.804 155.323C349.996 153.619 351.068 151.796 352.133 150.004C360.323 136.294 362.413 119.762 359.222 104.235C357.44 97.3181 354.543 90.7004 350.771 84.6394C349.862 83.0735 348.656 81.6937 347.527 80.2878C342.376 73.88 340.918 73.9925 345.412 66.9968L348.779 66.072Z" fill="#818CFF"/>
<path d="M329.355 82.8152C330.521 82.8072 332.167 82.8512 333.18 83.3972C338.867 86.4614 344.135 98.2022 345.944 104.233C349.773 117.354 348.23 131.459 341.655 143.442C339.141 148.123 337.353 152.149 332.156 153.706C327.545 154.826 325.174 150.802 324.227 147.004C325.561 143.912 327.336 141.972 329.069 139.198C337.003 126.505 337.169 112.237 329.936 99.1911C328.304 96.2472 325.488 93.353 324.36 90.321L324.229 89.9587C324.983 86.1468 325.682 84.4791 329.355 82.8152Z" fill="#818CFF"/>
<path d="M310.504 100.541C324.577 98.8511 326.837 132.007 313.336 137.31C312.084 137.358 310.65 137.29 309.519 136.617C299.853 131.09 310.334 125.019 309.773 117.916C309.438 113.663 306.289 110.741 305.182 106.664C305.528 105.369 306.008 104.057 306.442 102.784C307.803 101.683 308.859 101.083 310.504 100.541Z" fill="#818CFF"/>
<path d="M113.068 52.4909C114.343 52.5209 115.984 53.0546 117.098 53.6726C126.823 59.0646 123.187 78.5551 117.563 85.5681C111.681 92.904 104.844 99.741 98.5782 106.702C96.5514 108.962 94.9669 110.712 92.752 112.776C93.232 109.557 93.9831 105.428 95.0001 102.292C99.6901 87.8138 104.014 73.2194 109.037 58.8445C109.772 56.7406 111.272 53.856 113.068 52.4909Z" fill="#818CFF"/>
</svg>
